<?xml version="1.0" encoding="utf-8"?>
<!-- Generator: Adobe Illustrator 25.0.0, SVG Export Plug-In . SVG Version: 6.00 Build 0)  -->
<svg version="1.1" id="Layer_1" xmlns="http://www.w3.org/2000/svg" xmlns:xlink="http://www.w3.org/1999/xlink" x="0px" y="0px"
	 viewBox="0 0 1080 1080" style="enable-background:new 0 0 1080 1080;" xml:space="preserve">
<style type="text/css">
	.st0{fill:none;stroke:#000000;stroke-width:4;stroke-miterlimit:10;}
	.st1{stroke:#000000;stroke-width:4;stroke-miterlimit:10;}
	.st2{fill:#FFFFFF;}
	.st3{fill:none;stroke:#000000;stroke-width:2;stroke-miterlimit:10;}
</style>
<path class="st0" d="M365.5,472.5c0,0-19-29,0-35s20-2,37-26s34-41,34-41s-3.84-56.48,48-104c24-22,33,80,33,80s62-4,84,44
	c0,0,27-8,57-5s30,3,30,3s26.23,2.79,0,71c-15,39-56,52-56,52l-5,52c0,0-6,18,7,33s-19,13-30,11"/>
<path class="st0" d="M630,463l1,27c0,0,48.77-44.98,47.03-84.33c-0.4-9.14-19.23-3.39-52.95,9.48C615,419,629,442,629,442
	s16.77-12.03,7,4c0,0,12.86,2.89,5,9S630,463,630,463z"/>
<path class="st1" d="M476,381c0,0-5.27-12.97-18,4c-3,4,5-3,11,0S476,381,476,381z"/>
<path class="st1" d="M587.31,452.63c0,0,13.55-3.53,7.56,16.82c-1.41,4.8-0.59-5.8-6.58-8.82
	C582.3,457.62,587.31,452.63,587.31,452.63z"/>
<path class="st0" d="M577,536c0,0,9.3,3.1,14-11c1-3-11,6-10,0s10-5,10-14c0-2-12,4-14,0s-17-23-41-11s-22,40-22,40l2,5
	c0,0,18.11,22.94,32,16c2-1,12,2,16-2S580,540,577,536z"/>
<circle class="st1" cx="551.5" cy="521.5" r="23.5"/>
<circle class="st2" cx="545.5" cy="516.5" r="5.5"/>
<ellipse class="st3" cx="550" cy="524" rx="27" ry="26"/>
<path class="st0" d="M409.79,442.74c0,0-7.84-5.95,1.2-17.84c1.92-2.53,1.25,12.52,5.66,8.29s-1.51-11.12,5.96-16.22
	c1.66-1.13,3.47,12.21,7.92,11.6c4.45-0.61,28.71,1.05,32.33,27.74c3.63,26.69-20.74,40.9-20.74,40.9l-5.28,1.18
	c0,0-29.29-2.01-31.39-17.45c-0.3-2.22-8.45-8.81-7.4-14.39S404.77,442.52,409.79,442.74z"/>
<circle class="st1" cx="436.43" cy="455.69" r="23.5"/>
<circle class="st2" cx="443.94" cy="457.82" r="5.5"/>
<ellipse transform="matrix(0.8258 -0.564 0.564 0.8258 -182.6782 325.3211)" class="st3" cx="435.21" cy="458.34" rx="26" ry="27"/>
<ellipse transform="matrix(0.3018 -0.9534 0.9534 0.3018 -199.157 817.9068)" class="st0" cx="458.86" cy="544.93" rx="43.5" ry="34.93"/>
<path class="st0" d="M436,529c0,0,7,20,13,16s6-4,6-4s0,17,18,13c3.09-0.69,3,1,3,1s-6,5-13,4s-19,8.03-19-9
	C444,545,433,539,436,529z"/>
<path class="st1" d="M444,562c0,0,1,6,5,7S440,572,444,562z"/>
<path class="st0" d="M615,617c0,0-21,21-69,26s-83-6-83-6l-3-12c0,0,0.52-3-24-3c-5,0-14-13-14-13l-3-7l-10-3c0,0-70-82-52-141"/>
<path class="st0" d="M398,591c0,0-5,8,0,18s6,0,6,0l4-7L398,591z"/>
<path class="st0" d="M436,622c0,0,1,13-1,15s-6,14-12,16s-3,9-3,9s14,22,23,18s22-36,20-43s6-15-6-15S436,622,436,622z"/>
<polygon class="st0" points="436,635 462.43,644.3 455.74,662.64 428.03,648.82 "/>
<path class="st0" d="M397.81,607.53c0,0-8.76,9.65-8.41,12.46c0.35,2.81-3.85,14.74-0.34,20c3.51,5.26-3.15,8.95-3.15,8.95
	s-24.55,8.79-29.21,0.11c-4.65-8.68,4.71-41.93,10.58-46.23c5.87-4.3,4.46-15.53,13.94-8.17S397.81,607.53,397.81,607.53z"/>
<polygon class="st0" points="389.84,617.8 363.25,608.93 357.29,627.52 387.66,633.6 "/>
<path class="st0" d="M417.16,624.01l-1.96-2.05c-0.57-0.6-1.39-0.91-2.22-0.84l-2.83,0.25c-2.23,0.2-3.74-2.23-2.57-4.14l1.02-1.69
	c0.5-0.82,0.53-1.84,0.09-2.69l-0.85-1.62c-1.08-2.07,0.76-4.46,3.04-3.93l2.29,0.53c0.85,0.2,1.75-0.02,2.41-0.6l1.96-1.71
	c1.64-1.43,4.21-0.46,4.5,1.7l0.35,2.58c0.12,0.87,0.64,1.63,1.42,2.04l2.07,1.11c2.06,1.11,1.87,4.12-0.31,4.96l-1.7,0.65
	c-0.89,0.34-1.54,1.13-1.71,2.08l-0.34,1.94C421.44,624.81,418.71,625.63,417.16,624.01z"/>
<path class="st0" d="M395.78,609.87c0,0-14.78,23.13-4.78,39.13s13,14,13,14s14-1,24-14s6.21-26.46,6.21-26.46L426,613l-7-11
	c0,0-12.16,1.78-14.08,5.39C403,611,395.78,609.87,395.78,609.87z"/>
<path class="st0" d="M458.86,655.44c0,0,30.14,10.56,55.14,7.56s25.04,1.09,50-10c9-4,13-6,13-6v-10.16c0,0-90.79,10.23-112,3.16
	c-3-1-6.68,16.96-6.68,16.96"/>
<path class="st0" d="M577,647c0,0,42,35,60,45s41,42,41,42s10,12,20,42s4,54,4,54s-6,35-24,57s-29,26-29,26s-7,8-11,9s-41,7-67,5
	s-44-6-44-6"/>
<path class="st0" d="M574,756l-5,24c0,0,43-27,72,0c0,0-45-27-77,16c0,0-2,72-13,89c0,0,31,14,45,10s-13,9-48,1l-16.43,25.91
	c0,0-17.57,20.09-34.57,21.09s-16,1-33,0s-19-22-19-22s5-34,17-34s12-5,31,4s27,21,27,21s13,6,20-16s15-56,20-99S574,756,574,756z"
	/>
<path d="M464,907c0,0-12,16-2,25s11,3,11,3s-2-20,7-24s-11.23,9.15,0,26c2,3,17,0,17,0s-49.75,16.08-49.38-6.46S452,927,452,927
	S458,904,464,907z"/>
<path class="st0" d="M470,763c0,0,25.62,106.72,2.31,122.86"/>
<path class="st1" d="M428,745c0,0,38.1,55.29,48.05,55.64C486,801,472,805,472,805S433,774,428,745z"/>
<path class="st1" d="M404,663c0,0,0,75,12,112s17,41,19,58s6,40,7,47"/>
<path class="st1" d="M404,712c0,0-62-7-66,87c-0.67,15.64-3.15-71.12,66-81C411,717,404,712,404,712z"/>
<path class="st1" d="M343,756c0,0-23-9-23-26s-20,26-12,75c0,0,9,38,22,52s27,34,66,43s15,0,15,0s-112-9-95-155
	c1.62-13.94,11,22,22,18S343,756,343,756z"/>
<path class="st0" d="M462,886c0,0-35-14-43,0s-8,32-8,32s6,16,17,14s20,0,20,0"/>
<path d="M423,901c0,0-6,12-7,18s-3,2-3,2s5,8,8,8s11,2,14,1s9,0,9,0v-1l-8-2c0,0-1-19,2-23s-6,0-6,23c0,2-11-1-11-1l-3-3
	C418,923,420,908,423,901z"/>
</svg>
